# xmcd
#
# Track frame offsets:
#	150
#	13740
#	27536
#	42434
#	58357
#	76306
#	89393
#	103958
#	118949
#	132585
#	144758
#	157108
#	176335
#	191560
#	206903
#	220526
# Disc length: 3162 seconds
# Revision: 4
# Processed by: cddbd v1.5.2PL0 Copyright (c) Steve Scherf et al.
#
# Submitted via: libkcddb 0.31
#
DISCID=ef0c5810
DTITLE=John Anderson - The Essential
DYEAR=1998
DGENRE=Country
TTITLE0=Swingin'
TTITLE1=Cold Day In Hell
TTITLE2=Let Go Of The Stone
TTITLE3=Steamy Windows
TTITLE4=Seminole Wind
TTITLE5=Straight Tequila Night
TTITLE6=Nashville Tears
TTITLE7=Solid Ground
TTITLE8=Money In The Bank
TTITLE9=I Fell In The Water
TTITLE10=Where I Come From
TTITLE11=Mississippi Moon
TTITLE12=Clear As A Bell
TTITLE13=Long Hard Lesson Learned
TTITLE14=30,000 Feet
TTITLE15=Let The Guitar Do The Talkin'
EXTD=
EXTT0=
EXTT1=
EXTT2=
EXTT3=
EXTT4=
EXTT5=
EXTT6=
EXTT7=
EXTT8=
EXTT9=
EXTT10=
EXTT11=
EXTT12=
EXTT13=
EXTT14=
EXTT15=
PLAYORDER=
